<?xml version="1.0" standalone="no"?>
<!DOCTYPE svg PUBLIC "-//W3C//DTD SVG 20010904//EN"
 "http://www.w3.org/TR/2001/REC-SVG-20010904/DTD/svg10.dtd">
<svg version="1.0" xmlns="http://www.w3.org/2000/svg"
 width="360.000000pt" height="360.000000pt" viewBox="0 0 360.000000 360.000000"
 preserveAspectRatio="xMidYMid meet">

<g transform="translate(0.000000,360.000000) scale(0.100000,-0.100000)"
fill="#000000" stroke="none">
<path d="M1635 2941 c-422 -70 -771 -354 -915 -744 -53 -144 -64 -214 -64
-397 0 -183 11 -253 64 -397 114 -309 374 -569 683 -683 144 -53 214 -64 397
-64 183 0 253 11 397 64 310 114 569 373 683 683 53 144 64 214 64 397 0 183
-11 253 -64 397 -114 309 -374 569 -683 683 -124 45 -219 62 -367 66 -80 1
-167 -1 -195 -5z m425 -101 c162 -46 263 -94 380 -180 200 -149 342 -366 406
-620 27 -107 27 -373 0 -480 -101 -397 -385 -691 -771 -797 -91 -25 -115 -27
-275 -27 -160 0 -183 2 -274 27 -287 79 -524 266 -669 527 -135 244 -165 569
-77 840 125 382 455 664 855 731 92 15 342 3 425 -21z"/>
<path d="M1890 2393 c-70 -24 -124 -74 -163 -152 -58 -116 -75 -294 -32 -341
18 -20 18 -20 -8 -20 -14 0 -59 18 -99 40 -40 22 -86 40 -101 40 -15 0 -62 7
-103 16 -41 8 -84 12 -94 9 -40 -13 -33 -70 13 -107 l21 -16 -33 -98 c-43
-127 -58 -253 -44 -368 13 -106 34 -136 96 -136 35 0 47 7 95 55 l56 56 45
-44 c25 -24 70 -63 99 -87 64 -52 63 -52 183 53 l86 75 49 -49 c81 -81 140
-83 179 -4 32 64 28 246 -9 390 -17 67 -26 123 -22 143 8 54 49 98 106 117 95
32 140 88 140 177 0 48 -3 55 -27 70 -16 8 -44 19 -63 23 -25 5 -55 28 -105
80 -57 57 -80 74 -117 83 -61 16 -93 14 -148 -5z m135 -34 c29 -8 57 -29 100
-75 46 -49 74 -69 120 -87 59 -23 60 -24 63 -64 4 -57 -37 -102 -117 -132
-127 -46 -158 -138 -105 -311 24 -81 31 -304 11 -353 -22 -51 -49 -49 -109 10
-53 52 -55 58 -33 99 17 34 19 93 4 127 -6 13 -29 36 -52 51 -37 24 -50 27
-104 24 -41 -3 -68 -10 -81 -21 -19 -17 -21 -17 -53 2 -67 41 -185 17 -225
-45 -21 -32 -21 -101 0 -143 20 -38 14 -53 -44 -104 -71 -65 -98 -48 -111 70
-14 118 4 248 47 353 49 119 49 112 9 138 -43 28 -49 55 -7 42 15 -5 60 -14
100 -20 47 -6 98 -23 142 -45 89 -45 138 -46 245 -4 67 26 89 30 133 25 36 -4
52 -3 52 6 0 6 -24 50 -53 97 -73 117 -91 168 -84 234 l6 52 -21 -39 c-32 -62
-23 -147 26 -226 40 -65 39 -79 -9 -80 -11 0 -38 -9 -59 -21 -79 -42 -110 -8
-101 113 13 181 82 291 205 329 36 11 60 10 105 -2z m-391 -763 c18 -8 40 -23
48 -35 l15 -21 19 21 c49 55 146 57 192 4 50 -59 10 -132 -144 -259 l-67 -55
-51 42 c-143 118 -196 200 -165 256 15 27 71 61 102 61 10 0 33 -6 51 -14z"/>
<path d="M2029 2211 l-24 -20 42 6 c28 4 48 1 58 -7 9 -7 19 -10 23 -6 10 10
-36 46 -58 46 -10 0 -28 -9 -41 -19z"/>
</g>
</svg>
